<?xml version="1.0" encoding="utf-8"?>
<!-- Generator: Adobe Illustrator 19.2.0, SVG Export Plug-In . SVG Version: 6.00 Build 0)  -->
<svg version="1.1" id="Layer_1" xmlns="http://www.w3.org/2000/svg" xmlns:xlink="http://www.w3.org/1999/xlink" x="0px" y="0px"
	 viewBox="0 0 984.9 151.7" style="enable-background:new 0 0 984.9 151.7;" xml:space="preserve">
<style type="text/css">
	.st0{fill:#FFFFFF;}
</style>
<g>
	<path class="st0" d="M691.1,119c28.1,0,47.4-18.4,47.4-45.3c0-27-19.3-45.3-47.4-45.3c-28.2,0-47.6,18.3-47.6,45.3
		C643.5,100.6,662.9,119,691.1,119z M691.1,45.1c16.3,0,27.7,11.7,27.7,28.8c0,17.3-11.5,29-27.7,29c-16.4,0-27.9-11.7-27.9-29
		C663.2,56.8,674.7,45.1,691.1,45.1z"/>
	<path class="st0" d="M639.5,105.7c0-5.2-4.9-4.9-4.9-4.9h-41.2c0,0-0.1-74.5,0-95c0-5.9-4.9-4.9-4.9-4.9h-15.7v116.5h66.7
		C639.5,117.5,639.5,111,639.5,105.7z"/>
	<path class="st0" d="M876.7,119c15.7,0,28.8-5.5,37.7-15.1L903.9,93c-6.7,6.7-15.7,10.4-25.7,10.4c-14.4,0-25.7-8.5-28.7-22.2h69.7
		c2.4-32.2-11-52.8-43-52.8c-27,0.2-46,18.4-46,45.4C830.1,100.8,848.6,119,876.7,119z M876.3,43.9c14.9,0,24.5,9.2,25.2,23.6h-52
		C851.7,53.3,861.9,43.9,876.3,43.9z"/>
	<path class="st0" d="M953.5,71.5c1.5-15.3,13.1-25.5,31.4-24.5V28.5c-14.4,0-25.3,6.4-31.5,18.4l0.1-19.5l-19.6,4.9v85.2h19.6V71.5
		z"/>
	<path class="st0" d="M475.2,123.7c-3.1,6.7-7.9,9.9-13.9,9.9c-4.1,0-7.5-1.3-11.8-4.4l-8.4,14.9c6.3,5.2,12.8,7.5,21,7.5
		c13.7,0,24-7,29.6-21.1l41-101.3H519c0,0-5.5-0.3-7.4,4.8c-5.7,15.7-23.5,62.6-23.5,62.6S469.5,50,463.1,34.3
		c-2.2-5.4-6.8-4.9-6.8-4.9h-15.7l37.7,87.7L475.2,123.7z"/>
	<path class="st0" d="M794.5,118.4l35.3-89.1h-14.7c0,0-5-0.7-7,4.8c-5.7,16-23.4,65.7-23.4,65.7s-17.4-49.2-23.2-65.5
		c-2-5.6-7.2-5-7.2-5h-14.7l34.3,89.1H794.5z"/>
	<path class="st0" d="M19.6,31.3c0,0,25.9,53,34.3,69.5c2.5,4.9,6.9,4.9,6.9,4.9h4.9c0,0,4.5,0,6.9-4.9
		c8.2-16.8,35.3-69.5,35.3-69.5v86.2h19.6L127.6,0h-18.8c0,0-5-0.1-7.6,5.1C92.6,22.5,63.5,79,63.5,79S34.6,22.6,25.6,5.2
		C22.9-0.1,18,0,18,0H0v117.4l19.6,0.1V31.3z"/>
	<path class="st0" d="M189.1,119c28.1,0,47.4-18.4,47.4-45.3c0-27-19.3-45.3-47.4-45.3c-28.2,0-47.6,18.3-47.6,45.3
		C141.5,100.6,160.8,119,189.1,119z M189.1,45.1c16.3,0,27.7,11.7,27.7,28.8c0,17.3-11.5,29-27.7,29c-16.4,0-27.9-11.7-27.9-29
		C161.2,56.8,172.6,45.1,189.1,45.1z"/>
	<path class="st0" d="M397,119c15.7,0,28.8-5.5,37.7-15.1L424.2,93c-6.7,6.7-15.7,10.4-25.7,10.4c-14.4,0-25.6-8.5-28.6-22.2h69.7
		c2.4-32.2-11.1-52.8-43.1-52.8c-27,0.2-46,18.4-46,45.4C350.4,100.8,368.9,119,397,119z M396.7,43.9c14.9,0,24.6,8.2,25.2,22.6h-52
		C372.1,52.3,382.3,43.9,396.7,43.9z"/>
	<path class="st0" d="M269.8,70.5c1.4-13.9,10.3-23.7,25.4-23.9c13.7,0,21.7,8.5,21.7,21.9v49h19.6V62.6c0-21.3-12.4-34.2-33.6-34.2
		c-15.4,0-26.6,5.1-33.1,17.5c0-1.8,0-18.6,0-18.6l-19.6,4.9v85.2h19.6V70.5z"/>
</g>
</svg>
