<?xml version="1.0" encoding="utf-8"?>
<!-- Generator: Adobe Illustrator 19.2.0, SVG Export Plug-In . SVG Version: 6.00 Build 0)  -->
<svg version="1.1" id="Layer_1" xmlns="http://www.w3.org/2000/svg" xmlns:xlink="http://www.w3.org/1999/xlink" x="0px" y="0px"
	 viewBox="0 0 1379.1 291" style="enable-background:new 0 0 1379.1 291;" xml:space="preserve">
<style type="text/css">
	.st0{fill:#3AB34C;}
	.st1{fill:#E1EAE2;}
	.st2{fill:#2B7A3C;}
	.st3{fill:#79C585;}
	.st4{fill:#0E9347;}
	.st5{fill:#136032;}
	.st6{fill:#FCCE0F;}
	.st7{fill:#FFFFFF;}
</style>
<g>
	<path id="base_86_" class="st0" d="M0,72.8c0-40.2,32.6-19,72.8-19l145.5-14c40.2,0,72.8-7.1,72.8,33v145.5
		c0,40.2-32.6,72.8-72.8,72.8H72.8C32.6,291,0,258.4,0,218.2V72.8z"/>
	<path id="Combined-Shape_86_" class="st1" d="M291,87.3V72.8C291,32.6,258.4,0,218.2,0H72.8C32.6,0,0,32.6,0,72.8v14.5v14.5
		c0,40.2,32.6,72.8,72.8,72.8h145.5c40.2,0,72.8-32.6,72.8-72.8V87.3z"/>
	<path id="eye-left_76_" class="st2" d="M72.8,189.2c8,0,14.6,6.5,14.6,14.5c0,8-6.5,14.6-14.6,14.6c-8,0-14.5-6.5-14.5-14.6
		C58.2,195.7,64.7,189.2,72.8,189.2L72.8,189.2z"/>
	<ellipse id="eye-right_76_" class="st2" cx="218.3" cy="203.7" rx="14.6" ry="14.6"/>
	<path id="nose_76_" class="st3" d="M145.5,203.7c24.1,0,43.7,16.3,43.7,36.4c0,20.1-19.5,36.4-43.7,36.4s-43.6-16.3-43.6-36.4
		C101.9,220,121.4,203.7,145.5,203.7L145.5,203.7z"/>
	<path id="nose-hole-left_76_" class="st4" d="M123.7,232.8c4,0,7.3,3.3,7.3,7.3c0,4-3.3,7.3-7.3,7.3c-4,0-7.3-3.3-7.3-7.3
		C116.4,236.1,119.7,232.8,123.7,232.8L123.7,232.8z"/>
	<ellipse id="nose-hole-right_76_" class="st4" cx="167.3" cy="240.1" rx="7.3" ry="7.3"/>
	<path id="top-hole_86_" class="st5" d="M212.2,115.2c3.1,0,6.1,3.8,6.1,6.9v3.2c0,3.1-2.9,6.6-6.1,6.6H78.8c-3.1,0-6.1-3.5-6.1-6.6
		v-3.2c0-3.1,2.9-6.9,6.1-6.9H212.2z"/>
	<path id="coin_83_" class="st6" d="M203.7,87.3c0,17.3-8.4,33.9-20.3,44.6c-13.8,0-63.5,0-75.8,0c-12.1-10.7-20.3-27.2-20.3-44.6
		c0-32.1,26.1-58.2,58.2-58.2C177.6,29.1,203.7,55.2,203.7,87.3z"/>
	<path id="number_83_" class="st7" d="M157.6,119.7h-22.7V80.3c0-4.8-4.5-4.5-4.5-4.5h-10.6c0,0,0-5.3,0-6.1
		c10.4-5.1,23-11.8,30.3-22.7c2.2,0,7.6,0,7.6,0V119.7z"/>
</g>
<g>
	<path class="st7" d="M1085.3,201c28.1,0,47.4-18.4,47.4-45.3c0-27-19.3-45.3-47.4-45.3c-28.2,0-47.6,18.3-47.6,45.3
		C1037.8,182.6,1057.1,201,1085.3,201z M1085.3,127.1c16.3,0,27.7,11.7,27.7,28.8c0,17.3-11.5,29-27.7,29c-16.4,0-27.9-11.7-27.9-29
		C1057.4,138.8,1068.9,127.1,1085.3,127.1z"/>
	<path class="st7" d="M1033.7,187.7c0-5.2-4.9-4.9-4.9-4.9h-41.2c0,0-0.1-74.5,0-95c0-5.9-4.9-4.9-4.9-4.9H967v116.5h66.7
		C1033.7,199.5,1033.7,193,1033.7,187.7z"/>
	<path class="st7" d="M1270.9,201c15.7,0,28.8-5.5,37.7-15.1l-10.4-10.9c-6.7,6.7-15.7,10.4-25.7,10.4c-14.4,0-25.7-8.5-28.7-22.2
		h69.7c2.4-32.2-11-52.8-43-52.8c-27,0.2-46,18.4-46,45.4C1224.3,182.8,1242.8,201,1270.9,201z M1270.5,125.9
		c14.9,0,24.5,9.2,25.2,23.6h-52C1245.9,135.3,1256.2,125.9,1270.5,125.9z"/>
	<path class="st7" d="M1347.7,153.5c1.5-15.3,13.1-25.5,31.4-24.5v-18.4c-14.4,0-25.3,6.4-31.5,18.4l0.1-19.5l-19.6,4.9v85.2h19.6
		V153.5z"/>
	<path class="st7" d="M869.4,205.7c-3.1,6.7-7.9,9.9-13.9,9.9c-4.1,0-7.5-1.3-11.8-4.4l-8.4,14.9c6.3,5.2,12.8,7.5,21,7.5
		c13.7,0,24-7,29.6-21.1l41-101.3h-13.7c0,0-5.5-0.3-7.4,4.8c-5.7,15.7-23.5,62.6-23.5,62.6s-18.7-46.8-25.2-62.5
		c-2.2-5.4-6.8-4.9-6.8-4.9h-15.7l37.7,87.7L869.4,205.7z"/>
	<path class="st7" d="M1188.8,200.4l35.3-89.1h-14.7c0,0-5-0.7-7,4.8c-5.7,16-23.4,65.7-23.4,65.7s-17.4-49.2-23.2-65.5
		c-2-5.6-7.2-5-7.2-5h-14.7l34.3,89.1H1188.8z"/>
	<path class="st7" d="M413.9,113.3c0,0,25.9,53,34.3,69.5c2.5,4.9,6.9,4.9,6.9,4.9h4.9c0,0,4.5,0,6.9-4.9
		c8.2-16.8,35.3-69.5,35.3-69.5v86.2h19.6L521.9,82h-18.8c0,0-5-0.1-7.6,5.1c-8.6,17.4-37.8,73.9-37.8,73.9s-28.9-56.4-37.9-73.8
		c-2.7-5.3-7.6-5.2-7.6-5.2h-18v117.4l19.6,0.1V113.3z"/>
	<path class="st7" d="M583.3,201c28.1,0,47.4-18.4,47.4-45.3c0-27-19.3-45.3-47.4-45.3c-28.2,0-47.6,18.3-47.6,45.3
		C535.7,182.6,555.1,201,583.3,201z M583.3,127.1c16.3,0,27.7,11.7,27.7,28.8c0,17.3-11.5,29-27.7,29c-16.4,0-27.9-11.7-27.9-29
		C555.4,138.8,566.9,127.1,583.3,127.1z"/>
	<path class="st7" d="M791.2,201c15.7,0,28.8-5.5,37.7-15.1L818.4,175c-6.7,6.7-15.7,10.4-25.7,10.4c-14.4,0-25.6-8.5-28.6-22.2
		h69.7c2.4-32.2-11.1-52.8-43.1-52.8c-27,0.2-46,18.4-46,45.4C744.7,182.8,763.2,201,791.2,201z M790.9,125.9
		c14.9,0,24.6,8.2,25.2,22.6h-52C766.4,134.3,776.5,125.9,790.9,125.9z"/>
	<path class="st7" d="M664.1,152.5c1.4-13.9,10.3-23.7,25.4-23.9c13.7,0,21.7,8.5,21.7,21.9v49h19.6v-54.8
		c0-21.3-12.4-34.2-33.6-34.2c-15.4,0-26.6,5.1-33.1,17.5c0-1.8,0-18.6,0-18.6l-19.6,4.9v85.2h19.6V152.5z"/>
</g>
</svg>
